<?xml version="1.0" encoding="UTF-8" standalone="no"?>
<svg
   xmlns:dc="http://purl.org/dc/elements/1.1/"
   xmlns:cc="http://creativecommons.org/ns#"
   xmlns:rdf="http://www.w3.org/1999/02/22-rdf-syntax-ns#"
   xmlns:svg="http://www.w3.org/2000/svg"
   xmlns="http://www.w3.org/2000/svg"
   xmlns:sodipodi="http://sodipodi.sourceforge.net/DTD/sodipodi-0.dtd"
   xmlns:inkscape="http://www.inkscape.org/namespaces/inkscape"
   id="blue_copy"
   style="enable-background:new 0 0 100 100;"
   version="1.1"
   viewBox="0 0 100 100"
   xml:space="preserve"
   sodipodi:docname="play.svg"
   inkscape:version="1.0.2 (e86c870, 2021-01-15)"><metadata
     id="metadata20"><rdf:RDF><cc:Work
         rdf:about=""><dc:format>image/svg+xml</dc:format><dc:type
           rdf:resource="http://purl.org/dc/dcmitype/StillImage" /></cc:Work></rdf:RDF></metadata><defs
     id="defs18" /><sodipodi:namedview
     pagecolor="#ffffff"
     bordercolor="#666666"
     borderopacity="1"
     objecttolerance="10"
     gridtolerance="10"
     guidetolerance="10"
     inkscape:pageopacity="0"
     inkscape:pageshadow="2"
     inkscape:window-width="1920"
     inkscape:window-height="1017"
     id="namedview16"
     showgrid="false"
     inkscape:zoom="7.35"
     inkscape:cx="50"
     inkscape:cy="50"
     inkscape:window-x="-8"
     inkscape:window-y="-8"
     inkscape:window-maximized="1"
     inkscape:current-layer="blue_copy" /><g
     id="Layer_7_copy"
     style="fill:#004eff;fill-opacity:1;stroke:none;stroke-opacity:1;stroke-width:2.2;stroke-miterlimit:4;stroke-dasharray:none;stroke-linejoin:round"><path
       d="M39.806,72.858h-8.915c-2.176,0-3.94-1.764-3.94-3.94V31.119c0-2.176,1.764-3.94,3.94-3.94h8.915   c2.176,0,3.94,1.764,3.94,3.94v37.799C43.746,71.094,41.982,72.858,39.806,72.858z"
       id="path2"
       style="fill:#004eff;fill-opacity:1;stroke:none;stroke-opacity:1;stroke-width:2.2;stroke-miterlimit:4;stroke-dasharray:none;stroke-linejoin:round" /><path
       d="M68.109,72.821h-8.915c-2.176,0-3.94-1.764-3.94-3.94V31.082c0-2.176,1.764-3.94,3.94-3.94h8.915   c2.176,0,3.94,1.764,3.94,3.94v37.799C72.049,71.057,70.285,72.821,68.109,72.821z"
       id="path4"
       style="fill:#004eff;fill-opacity:1;stroke:none;stroke-opacity:1;stroke-width:2.2;stroke-miterlimit:4;stroke-dasharray:none;stroke-linejoin:round" /><path
       d="M40.489,27.248c0.769,0.719,1.257,1.735,1.257,2.871v37.799c0,2.176-1.764,3.94-3.94,3.94h-8.915   c-0.234,0-0.46-0.03-0.683-0.069c0.704,0.658,1.643,1.069,2.683,1.069h8.915c2.176,0,3.94-1.764,3.94-3.94V31.119   C43.746,29.177,42.338,27.573,40.489,27.248z"
       id="path6"
       style="fill:#004eff;fill-opacity:1;stroke:none;stroke-opacity:1;stroke-width:2.2;stroke-miterlimit:4;stroke-dasharray:none;stroke-linejoin:round" /><path
       d="M68.792,27.211c0.769,0.719,1.257,1.735,1.257,2.871v37.799c0,2.176-1.764,3.94-3.94,3.94h-8.915   c-0.234,0-0.46-0.03-0.683-0.069c0.704,0.658,1.643,1.069,2.683,1.069h8.915c2.176,0,3.94-1.764,3.94-3.94V31.082   C72.049,29.14,70.641,27.535,68.792,27.211z"
       id="path8"
       style="fill:#004eff;fill-opacity:1;stroke:none;stroke-opacity:1;stroke-width:2.2;stroke-miterlimit:4;stroke-dasharray:none;stroke-linejoin:round" /><path
       d="M39.806,72.858h-8.915c-2.176,0-3.94-1.764-3.94-3.94V31.119   c0-2.176,1.764-3.94,3.94-3.94h8.915c2.176,0,3.94,1.764,3.94,3.94v37.799C43.746,71.094,41.982,72.858,39.806,72.858z"
       style="fill:#004eff;stroke:none;stroke-miterlimit:4;fill-opacity:1;stroke-opacity:1;stroke-width:2.2;stroke-dasharray:none;stroke-linejoin:round"
       id="path10" /><path
       d="M68.109,72.821h-8.915c-2.176,0-3.94-1.764-3.94-3.94V31.082   c0-2.176,1.764-3.94,3.94-3.94h8.915c2.176,0,3.94,1.764,3.94,3.94v37.799C72.049,71.057,70.285,72.821,68.109,72.821z"
       style="fill:#004eff;stroke:none;stroke-miterlimit:4;fill-opacity:1;stroke-opacity:1;stroke-width:2.2;stroke-dasharray:none;stroke-linejoin:round"
       id="path12" /></g></svg>
