<?xml version="1.0" encoding="UTF-8" standalone="no"?>
<svg
   xmlns:dc="http://purl.org/dc/elements/1.1/"
   xmlns:cc="http://creativecommons.org/ns#"
   xmlns:rdf="http://www.w3.org/1999/02/22-rdf-syntax-ns#"
   xmlns:svg="http://www.w3.org/2000/svg"
   xmlns="http://www.w3.org/2000/svg"
   xmlns:sodipodi="http://sodipodi.sourceforge.net/DTD/sodipodi-0.dtd"
   xmlns:inkscape="http://www.inkscape.org/namespaces/inkscape"
   id="blue_copy"
   style="enable-background:new 0 0 100 100;"
   version="1.1"
   viewBox="0 0 100 100"
   xml:space="preserve"
   sodipodi:docname="1486348532-music-play-pause-control-go-arrow_80458.svg"
   inkscape:version="1.0.2 (e86c870, 2021-01-15)"><metadata
     id="metadata14"><rdf:RDF><cc:Work
         rdf:about=""><dc:format>image/svg+xml</dc:format><dc:type
           rdf:resource="http://purl.org/dc/dcmitype/StillImage" /></cc:Work></rdf:RDF></metadata><defs
     id="defs12" /><sodipodi:namedview
     pagecolor="#ffffff"
     bordercolor="#666666"
     borderopacity="1"
     objecttolerance="10"
     gridtolerance="10"
     guidetolerance="10"
     inkscape:pageopacity="0"
     inkscape:pageshadow="2"
     inkscape:window-width="1920"
     inkscape:window-height="1017"
     id="namedview10"
     showgrid="false"
     inkscape:zoom="3.675"
     inkscape:cx="73.061794"
     inkscape:cy="69.794141"
     inkscape:window-x="-8"
     inkscape:window-y="-8"
     inkscape:window-maximized="1"
     inkscape:current-layer="blue_copy" /><g
     id="Layer_4_copy"
     style="stroke:none;fill:#004eff;fill-opacity:0.96078432;opacity:1"><path
       d="M31.356,25.677l38.625,22.3c1.557,0.899,1.557,3.147,0,4.046l-38.625,22.3c-1.557,0.899-3.504-0.225-3.504-2.023V27.7   C27.852,25.902,29.798,24.778,31.356,25.677z"
       id="path2"
       style="stroke:none;fill:#004eff;fill-opacity:0.96078432" /><path
       d="M69.981,47.977l-38.625-22.3c-0.233-0.134-0.474-0.21-0.716-0.259l37.341,21.559c1.557,0.899,1.557,3.147,0,4.046   l-38.625,22.3c-0.349,0.201-0.716,0.288-1.078,0.301c0.656,0.938,1.961,1.343,3.078,0.699l38.625-22.3   C71.538,51.124,71.538,48.876,69.981,47.977z"
       id="path4"
       style="stroke:none;fill:#004eff;fill-opacity:0.96078432" /><path
       d="M31.356,25.677l38.625,22.3c1.557,0.899,1.557,3.147,0,4.046   l-38.625,22.3c-1.557,0.899-3.504-0.225-3.504-2.023V27.7C27.852,25.902,29.798,24.778,31.356,25.677z"
       style="fill:#004eff;stroke:none;stroke-miterlimit:10;fill-opacity:0.96078432"
       id="path6" /></g></svg>
